<mxfile host="app.diagrams.net" modified="2023-03-20T08:18:25.308Z" agent="5.0 (Windows NT 10.0; Win64; x64) AppleWebKit/537.36 (KHTML, like Gecko) Chrome/111.0.0.0 Safari/537.36" etag="IawsmDbGRdEXE0IhkWHW" version="21.0.6" type="github">
  <diagram name="第 1 页" id="Srm3ZgDP9B_rgI_yN2VL">
    <mxGraphModel dx="398" dy="212" grid="1" gridSize="10" guides="1" tooltips="1" connect="1" arrows="1" fold="1" page="1" pageScale="1" pageWidth="827" pageHeight="1169" math="0" shadow="0">
      <root>
        <mxCell id="0" />
        <mxCell id="1" parent="0" />
        <mxCell id="60L1bcbyMnznRPTj2HsR-5" value="" style="edgeStyle=orthogonalEdgeStyle;rounded=0;orthogonalLoop=1;jettySize=auto;html=1;endArrow=none;endFill=0;entryX=0;entryY=0.5;entryDx=0;entryDy=0;entryPerimeter=0;" edge="1" parent="1" source="60L1bcbyMnznRPTj2HsR-2" target="60L1bcbyMnznRPTj2HsR-27">
          <mxGeometry relative="1" as="geometry">
            <mxPoint x="280" y="459.9999999999999" as="targetPoint" />
          </mxGeometry>
        </mxCell>
        <mxCell id="60L1bcbyMnznRPTj2HsR-14" style="edgeStyle=orthogonalEdgeStyle;rounded=0;orthogonalLoop=1;jettySize=auto;html=1;entryX=1;entryY=0.5;entryDx=0;entryDy=0;entryPerimeter=0;endArrow=none;endFill=0;" edge="1" parent="1" source="60L1bcbyMnznRPTj2HsR-2" target="60L1bcbyMnznRPTj2HsR-12">
          <mxGeometry relative="1" as="geometry" />
        </mxCell>
        <mxCell id="60L1bcbyMnznRPTj2HsR-2" value="«getToken»&lt;br&gt;&lt;b&gt;构件&lt;/b&gt;" style="html=1;dropTarget=0;whiteSpace=wrap;" vertex="1" parent="1">
          <mxGeometry x="180" y="420" width="100" height="80" as="geometry" />
        </mxCell>
        <mxCell id="60L1bcbyMnznRPTj2HsR-3" value="" style="shape=module;jettyWidth=8;jettyHeight=4;" vertex="1" parent="60L1bcbyMnznRPTj2HsR-2">
          <mxGeometry x="1" width="20" height="20" relative="1" as="geometry">
            <mxPoint x="-27" y="7" as="offset" />
          </mxGeometry>
        </mxCell>
        <mxCell id="60L1bcbyMnznRPTj2HsR-9" value="" style="edgeStyle=orthogonalEdgeStyle;rounded=0;orthogonalLoop=1;jettySize=auto;html=1;exitX=1;exitY=0.5;exitDx=0;exitDy=0;exitPerimeter=0;" edge="1" parent="1" source="60L1bcbyMnznRPTj2HsR-27" target="60L1bcbyMnznRPTj2HsR-7">
          <mxGeometry relative="1" as="geometry">
            <mxPoint x="310" y="459.9999999999999" as="sourcePoint" />
          </mxGeometry>
        </mxCell>
        <mxCell id="60L1bcbyMnznRPTj2HsR-6" value="«process»&lt;br&gt;&lt;b&gt;构件&lt;/b&gt;" style="html=1;dropTarget=0;whiteSpace=wrap;" vertex="1" parent="1">
          <mxGeometry x="340" y="420" width="100" height="80" as="geometry" />
        </mxCell>
        <mxCell id="60L1bcbyMnznRPTj2HsR-7" value="" style="shape=module;jettyWidth=8;jettyHeight=4;" vertex="1" parent="60L1bcbyMnznRPTj2HsR-6">
          <mxGeometry x="1" width="20" height="20" relative="1" as="geometry">
            <mxPoint x="-27" y="7" as="offset" />
          </mxGeometry>
        </mxCell>
        <mxCell id="60L1bcbyMnznRPTj2HsR-12" value="" style="shape=requiredInterface;html=1;verticalLabelPosition=bottom;sketch=0;" vertex="1" parent="1">
          <mxGeometry x="150" y="450" width="10" height="20" as="geometry" />
        </mxCell>
        <mxCell id="60L1bcbyMnznRPTj2HsR-17" value="" style="edgeStyle=orthogonalEdgeStyle;rounded=0;orthogonalLoop=1;jettySize=auto;html=1;endArrow=none;endFill=0;entryX=0.5;entryY=0;entryDx=0;entryDy=0;" edge="1" parent="1" target="60L1bcbyMnznRPTj2HsR-2">
          <mxGeometry relative="1" as="geometry">
            <mxPoint x="210" y="370" as="sourcePoint" />
            <mxPoint x="190" y="420" as="targetPoint" />
            <Array as="points">
              <mxPoint x="210" y="420" />
            </Array>
          </mxGeometry>
        </mxCell>
        <mxCell id="60L1bcbyMnznRPTj2HsR-21" value="" style="edgeStyle=orthogonalEdgeStyle;rounded=0;orthogonalLoop=1;jettySize=auto;html=1;endArrow=none;endFill=0;" edge="1" parent="1" source="60L1bcbyMnznRPTj2HsR-22" target="60L1bcbyMnznRPTj2HsR-6">
          <mxGeometry relative="1" as="geometry">
            <mxPoint x="380" y="420" as="targetPoint" />
          </mxGeometry>
        </mxCell>
        <mxCell id="60L1bcbyMnznRPTj2HsR-22" value="" style="ellipse;" vertex="1" parent="1">
          <mxGeometry x="360" y="380" width="20" height="20" as="geometry" />
        </mxCell>
        <mxCell id="60L1bcbyMnznRPTj2HsR-23" style="edgeStyle=orthogonalEdgeStyle;rounded=0;orthogonalLoop=1;jettySize=auto;html=1;endArrow=none;endFill=0;" edge="1" parent="1" source="60L1bcbyMnznRPTj2HsR-24" target="60L1bcbyMnznRPTj2HsR-6">
          <mxGeometry relative="1" as="geometry">
            <mxPoint x="409" y="420" as="targetPoint" />
            <Array as="points">
              <mxPoint x="400" y="420" />
              <mxPoint x="400" y="420" />
            </Array>
          </mxGeometry>
        </mxCell>
        <mxCell id="60L1bcbyMnznRPTj2HsR-24" value="" style="shape=requiredInterface;html=1;verticalLabelPosition=bottom;sketch=0;rotation=90;" vertex="1" parent="1">
          <mxGeometry x="404" y="380" width="10" height="20" as="geometry" />
        </mxCell>
        <mxCell id="60L1bcbyMnznRPTj2HsR-25" value="«returnToken»&lt;br&gt;&lt;b&gt;构件&lt;/b&gt;" style="html=1;dropTarget=0;whiteSpace=wrap;" vertex="1" parent="1">
          <mxGeometry x="180" y="230" width="100" height="80" as="geometry" />
        </mxCell>
        <mxCell id="60L1bcbyMnznRPTj2HsR-26" value="" style="shape=module;jettyWidth=8;jettyHeight=4;" vertex="1" parent="60L1bcbyMnznRPTj2HsR-25">
          <mxGeometry x="1" width="20" height="20" relative="1" as="geometry">
            <mxPoint x="-27" y="7" as="offset" />
          </mxGeometry>
        </mxCell>
        <mxCell id="60L1bcbyMnznRPTj2HsR-27" value="" style="shape=providedRequiredInterface;html=1;verticalLabelPosition=bottom;sketch=0;" vertex="1" parent="1">
          <mxGeometry x="300" y="450" width="20" height="20" as="geometry" />
        </mxCell>
        <mxCell id="60L1bcbyMnznRPTj2HsR-30" value="" style="shape=providedRequiredInterface;html=1;verticalLabelPosition=bottom;sketch=0;rotation=-90;" vertex="1" parent="1">
          <mxGeometry x="200" y="350" width="20" height="20" as="geometry" />
        </mxCell>
        <mxCell id="60L1bcbyMnznRPTj2HsR-33" value="" style="edgeStyle=orthogonalEdgeStyle;rounded=0;orthogonalLoop=1;jettySize=auto;html=1;endArrow=none;endFill=0;" edge="1" parent="1" source="60L1bcbyMnznRPTj2HsR-31" target="60L1bcbyMnznRPTj2HsR-2">
          <mxGeometry relative="1" as="geometry">
            <Array as="points">
              <mxPoint x="250" y="410" />
              <mxPoint x="250" y="410" />
            </Array>
          </mxGeometry>
        </mxCell>
        <mxCell id="60L1bcbyMnznRPTj2HsR-31" value="" style="shape=providedRequiredInterface;html=1;verticalLabelPosition=bottom;sketch=0;rotation=90;" vertex="1" parent="1">
          <mxGeometry x="240" y="350" width="20" height="20" as="geometry" />
        </mxCell>
      </root>
    </mxGraphModel>
  </diagram>
</mxfile>
